<svg xmlns="http://www.w3.org/2000/svg" viewBox="0 0 978 280" width="978" height="280">
  <g stroke="#1f4958" stroke-width="3.2">
      <line x1="38" y1="90" x2="142" y2="43"/>
      <line x1="38" y1="90" x2="142" y2="91"/>
      <line x1="38" y1="90" x2="142" y2="139"/>
      <line x1="38" y1="90" x2="142" y2="187"/>
      <line x1="38" y1="90" x2="142" y2="238"/>
      <line x1="38" y1="140" x2="142" y2="43"/>
      <line x1="38" y1="140" x2="142" y2="91"/>
      <line x1="38" y1="140" x2="142" y2="139"/>
      <line x1="38" y1="140" x2="142" y2="187"/>
      <line x1="38" y1="140" x2="142" y2="238"/>
      <line x1="38" y1="190" x2="142" y2="43"/>
      <line x1="38" y1="190" x2="142" y2="91"/>
      <line x1="38" y1="190" x2="142" y2="139"/>
      <line x1="38" y1="190" x2="142" y2="187"/>
      <line x1="38" y1="190" x2="142" y2="238"/>
      <line x1="142" y1="43" x2="234" y2="82"/>
      <line x1="142" y1="43" x2="234" y2="135"/>
      <line x1="142" y1="43" x2="234" y2="188"/>
      <line x1="142" y1="91" x2="234" y2="82"/>
      <line x1="142" y1="91" x2="234" y2="135"/>
      <line x1="142" y1="91" x2="234" y2="188"/>
      <line x1="142" y1="139" x2="234" y2="82"/>
      <line x1="142" y1="139" x2="234" y2="135"/>
      <line x1="142" y1="139" x2="234" y2="188"/>
      <line x1="142" y1="187" x2="234" y2="82"/>
      <line x1="142" y1="187" x2="234" y2="135"/>
      <line x1="142" y1="187" x2="234" y2="188"/>
      <line x1="142" y1="238" x2="234" y2="82"/>
      <line x1="142" y1="238" x2="234" y2="135"/>
      <line x1="142" y1="238" x2="234" y2="188"/>
  </g>
  <g fill="#1f4958">
      <circle cx="38" cy="90" r="15"/>
      <circle cx="38" cy="140" r="15"/>
      <circle cx="38" cy="190" r="15"/>
      <circle cx="142" cy="43" r="15"/>
      <circle cx="142" cy="91" r="15"/>
      <circle cx="142" cy="139" r="15"/>
      <circle cx="142" cy="187" r="15"/>
      <circle cx="142" cy="238" r="15"/>
      <circle cx="234" cy="82" r="15"/>
      <circle cx="234" cy="135" r="15"/>
      <circle cx="234" cy="188" r="15"/>
  </g>
  <g fill="#1f4958" transform="translate(355.00,184) scale(0.9091,1)"><path d="M72 0V538H228V0Z" transform="translate(0.000,0.000) scale(0.137288,-0.137288)"/>
<path d="M390 -8Q319 -8 268.0 22.0Q217 52 190.0 113.5Q163 175 163 269Q163 364 191.5 425.0Q220 486 271.0 516.0Q322 546 390 546Q466 546 526.5 512.0Q587 478 622.5 416.0Q658 354 658 269Q658 185 622.5 123.0Q587 61 526.5 26.5Q466 -8 390 -8ZM72 0V742H228V429L218 270L221 110V0ZM363 120Q402 120 432.5 138.0Q463 156 481.5 189.5Q500 223 500 269Q500 316 481.5 349.0Q463 382 432.5 400.0Q402 418 363 418Q324 418 293.0 400.0Q262 382 244.0 349.0Q226 316 226 269Q226 223 244.0 189.5Q262 156 293.0 138.0Q324 120 363 120Z" transform="translate(41.324,0.000) scale(0.137288,-0.137288)"/>
<path d="M339 -8Q247 -8 177.5 28.0Q108 64 70.0 126.5Q32 189 32 269Q32 350 69.5 412.5Q107 475 172.0 510.5Q237 546 319 546Q398 546 461.5 512.5Q525 479 562.0 416.5Q599 354 599 267Q599 258 598.0 246.5Q597 235 596 225H159V316H514L454 289Q454 331 437.0 362.0Q420 393 390.0 410.5Q360 428 320 428Q280 428 249.5 410.5Q219 393 202.0 361.5Q185 330 185 287V263Q185 219 204.5 185.5Q224 152 259.5 134.5Q295 117 343 117Q386 117 418.5 130.0Q451 143 478 169L561 79Q524 37 468.0 14.5Q412 -8 339 -8Z" transform="translate(136.053,0.000) scale(0.137288,-0.137288)"/>
<path d="M332 -8Q245 -8 177.0 27.5Q109 63 70.5 126.0Q32 189 32 269Q32 350 70.5 412.5Q109 475 177.0 510.5Q245 546 332 546Q417 546 480.0 510.5Q543 475 573 409L452 344Q431 382 399.5 400.0Q368 418 331 418Q291 418 259.0 400.0Q227 382 208.5 349.0Q190 316 190 269Q190 222 208.5 189.0Q227 156 259.0 138.0Q291 120 331 120Q368 120 399.5 137.5Q431 155 452 194L573 128Q543 63 480.0 27.5Q417 -8 332 -8Z" transform="translate(222.681,0.000) scale(0.137288,-0.137288)"/>
<path d="M72 0V742H228V389L193 434Q222 488 276.0 517.0Q330 546 399 546Q463 546 513.5 520.5Q564 495 593.0 442.5Q622 390 622 308V0H466V284Q466 349 437.5 380.0Q409 411 357 411Q320 411 290.5 395.5Q261 380 244.5 348.0Q228 316 228 266V0Z" transform="translate(303.819,0.000) scale(0.137288,-0.137288)"/>
<path d="M339 -8Q247 -8 177.5 28.0Q108 64 70.0 126.5Q32 189 32 269Q32 350 69.5 412.5Q107 475 172.0 510.5Q237 546 319 546Q398 546 461.5 512.5Q525 479 562.0 416.5Q599 354 599 267Q599 258 598.0 246.5Q597 235 596 225H159V316H514L454 289Q454 331 437.0 362.0Q420 393 390.0 410.5Q360 428 320 428Q280 428 249.5 410.5Q219 393 202.0 361.5Q185 330 185 287V263Q185 219 204.5 185.5Q224 152 259.5 134.5Q295 117 343 117Q386 117 418.5 130.0Q451 143 478 169L561 79Q524 37 468.0 14.5Q412 -8 339 -8Z" transform="translate(398.685,0.000) scale(0.137288,-0.137288)"/>
<path d="M332 -8Q245 -8 177.0 27.5Q109 63 70.5 126.0Q32 189 32 269Q32 350 70.5 412.5Q109 475 177.0 510.5Q245 546 332 546Q417 546 480.0 510.5Q543 475 573 409L452 344Q431 382 399.5 400.0Q368 418 331 418Q291 418 259.0 400.0Q227 382 208.5 349.0Q190 316 190 269Q190 222 208.5 189.0Q227 156 259.0 138.0Q291 120 331 120Q368 120 399.5 137.5Q431 155 452 194L573 128Q543 63 480.0 27.5Q417 -8 332 -8Z" transform="translate(485.314,0.000) scale(0.137288,-0.137288)"/>
<path d="M201 110 205 300 456 538H642L401 293L320 227ZM72 0V742H228V0ZM473 0 291 226 389 347 662 0Z" transform="translate(566.451,0.000) scale(0.137288,-0.137288)"/></g>
  <g fill="#1f4958" transform="translate(296.00,243)"><path d="M91 0V530H183V387L168 425Q194 477 248.0 506.0Q302 535 374 535Q439 535 488.5 510.0Q538 485 566.0 434.0Q594 383 594 305V0H498V294Q498 371 460.5 410.0Q423 449 355 449Q304 449 266.0 429.0Q228 409 207.5 370.0Q187 331 187 273V0Z" transform="translate(0.000,0.000) scale(0.041206,-0.041206)"/>
<path d="M327 -6Q242 -6 177.5 29.0Q113 64 77.5 125.0Q42 186 42 265Q42 344 76.5 405.0Q111 466 171.5 500.5Q232 535 308 535Q385 535 444.0 501.0Q503 467 536.5 405.5Q570 344 570 262Q570 256 569.5 248.0Q569 240 568 233H117V302H518L479 278Q480 329 458.0 369.0Q436 409 397.5 431.5Q359 454 308 454Q258 454 219.0 431.5Q180 409 158.0 368.5Q136 328 136 276V260Q136 207 160.5 165.5Q185 124 229.0 101.0Q273 78 330 78Q377 78 415.5 94.0Q454 110 483 142L536 80Q500 38 446.5 16.0Q393 -6 327 -6Z" transform="translate(28.062,0.000) scale(0.041206,-0.041206)"/>
<path d="M314 -6Q246 -6 194.5 19.0Q143 44 114.5 95.5Q86 147 86 225V530H182V236Q182 158 219.5 119.0Q257 80 325 80Q375 80 412.0 100.5Q449 121 469.0 160.5Q489 200 489 256V530H585V0H494V143L509 105Q483 52 431.0 23.0Q379 -6 314 -6Z" transform="translate(53.280,0.000) scale(0.041206,-0.041206)"/>
<path d="M91 0V530H183V386L174 422Q196 477 248.0 506.0Q300 535 376 535V442Q370 443 364.5 443.0Q359 443 354 443Q277 443 232.0 397.0Q187 351 187 264V0Z" transform="translate(81.177,0.000) scale(0.041206,-0.041206)"/>
<path d="M420 0V112L415 133V324Q415 385 379.5 418.5Q344 452 273 452Q226 452 181.0 436.5Q136 421 105 395L65 467Q106 500 163.5 517.5Q221 535 284 535Q393 535 452.0 482.0Q511 429 511 320V0ZM246 -6Q187 -6 142.5 14.0Q98 34 74.0 69.5Q50 105 50 150Q50 193 70.5 228.0Q91 263 137.5 284.0Q184 305 263 305H431V236H267Q195 236 170.0 212.0Q145 188 145 154Q145 115 176.0 91.5Q207 68 262 68Q316 68 356.5 92.0Q397 116 415 162L434 96Q415 49 367.0 21.5Q319 -6 246 -6Z" transform="translate(98.071,0.000) scale(0.041206,-0.041206)"/>
<path d="M91 0V742H187V0Z" transform="translate(122.713,0.000) scale(0.041206,-0.041206)"/>
<path d="M91 0V530H183V387L168 425Q194 477 248.0 506.0Q302 535 374 535Q439 535 488.5 510.0Q538 485 566.0 434.0Q594 383 594 305V0H498V294Q498 371 460.5 410.0Q423 449 355 449Q304 449 266.0 429.0Q228 409 207.5 370.0Q187 331 187 273V0Z" transform="translate(145.294,0.000) scale(0.041206,-0.041206)"/>
<path d="M327 -6Q242 -6 177.5 29.0Q113 64 77.5 125.0Q42 186 42 265Q42 344 76.5 405.0Q111 466 171.5 500.5Q232 535 308 535Q385 535 444.0 501.0Q503 467 536.5 405.5Q570 344 570 262Q570 256 569.5 248.0Q569 240 568 233H117V302H518L479 278Q480 329 458.0 369.0Q436 409 397.5 431.5Q359 454 308 454Q258 454 219.0 431.5Q180 409 158.0 368.5Q136 328 136 276V260Q136 207 160.5 165.5Q185 124 229.0 101.0Q273 78 330 78Q377 78 415.5 94.0Q454 110 483 142L536 80Q500 38 446.5 16.0Q393 -6 327 -6Z" transform="translate(173.355,0.000) scale(0.041206,-0.041206)"/>
<path d="M273 -6Q193 -6 149.0 37.0Q105 80 105 160V646H201V164Q201 121 222.5 98.0Q244 75 284 75Q329 75 359 100L389 31Q367 12 336.5 3.0Q306 -6 273 -6ZM15 451V530H353V451Z" transform="translate(198.573,0.000) scale(0.041206,-0.041206)"/>
<path d="M203 0 6 530H97L272 50H229L411 530H492L670 50H628L807 530H893L695 0H603L436 438H464L295 0Z" transform="translate(215.633,0.000) scale(0.041206,-0.041206)"/>
<path d="M318 -6Q238 -6 176.0 29.0Q114 64 78.0 125.5Q42 187 42 265Q42 344 78.0 405.0Q114 466 176.0 500.5Q238 535 318 535Q397 535 459.5 500.5Q522 466 557.5 405.5Q593 345 593 265Q593 186 557.5 125.0Q522 64 459.5 29.0Q397 -6 318 -6ZM318 78Q369 78 409.5 101.0Q450 124 473.0 166.5Q496 209 496 265Q496 322 473.0 363.5Q450 405 409.5 428.0Q369 451 318 451Q267 451 227.0 428.0Q187 405 163.0 363.5Q139 322 139 265Q139 209 163.0 166.5Q187 124 227.0 101.0Q267 78 318 78Z" transform="translate(252.677,0.000) scale(0.041206,-0.041206)"/>
<path d="M91 0V530H183V386L174 422Q196 477 248.0 506.0Q300 535 376 535V442Q370 443 364.5 443.0Q359 443 354 443Q277 443 232.0 397.0Q187 351 187 264V0Z" transform="translate(278.843,0.000) scale(0.041206,-0.041206)"/>
<path d="M169 128 171 251 476 530H592L358 300L306 256ZM91 0V742H187V0ZM496 0 288 258 350 335 614 0Z" transform="translate(295.738,0.000) scale(0.041206,-0.041206)"/>
<path d="M230 0 -2 530H98L304 50H256L466 530H560L328 0Z" transform="translate(332.164,0.000) scale(0.041206,-0.041206)"/>
<path d="M327 -6Q242 -6 177.5 29.0Q113 64 77.5 125.0Q42 186 42 265Q42 344 76.5 405.0Q111 466 171.5 500.5Q232 535 308 535Q385 535 444.0 501.0Q503 467 536.5 405.5Q570 344 570 262Q570 256 569.5 248.0Q569 240 568 233H117V302H518L479 278Q480 329 458.0 369.0Q436 409 397.5 431.5Q359 454 308 454Q258 454 219.0 431.5Q180 409 158.0 368.5Q136 328 136 276V260Q136 207 160.5 165.5Q185 124 229.0 101.0Q273 78 330 78Q377 78 415.5 94.0Q454 110 483 142L536 80Q500 38 446.5 16.0Q393 -6 327 -6Z" transform="translate(355.199,0.000) scale(0.041206,-0.041206)"/>
<path d="M91 0V530H183V386L174 422Q196 477 248.0 506.0Q300 535 376 535V442Q370 443 364.5 443.0Q359 443 354 443Q277 443 232.0 397.0Q187 351 187 264V0Z" transform="translate(380.417,0.000) scale(0.041206,-0.041206)"/>
<path d="M91 0V530H187V0ZM139 632Q111 632 92.5 650.0Q74 668 74 694Q74 721 92.5 739.0Q111 757 139 757Q167 757 185.5 739.5Q204 722 204 696Q204 669 186.0 650.5Q168 632 139 632Z" transform="translate(397.312,0.000) scale(0.041206,-0.041206)"/>
<path d="M105 0V577Q105 655 150.5 701.5Q196 748 280 748Q311 748 339.5 740.5Q368 733 388 717L359 644Q344 656 325.0 662.5Q306 669 285 669Q243 669 221.0 645.5Q199 622 199 576V505L201 461V0ZM15 451V530H353V451Z" transform="translate(408.808,0.000) scale(0.041206,-0.041206)"/>
<path d="M91 0V530H187V0ZM139 632Q111 632 92.5 650.0Q74 668 74 694Q74 721 92.5 739.0Q111 757 139 757Q167 757 185.5 739.5Q204 722 204 696Q204 669 186.0 650.5Q168 632 139 632Z" transform="translate(423.354,0.000) scale(0.041206,-0.041206)"/>
<path d="M322 -6Q241 -6 177.5 29.0Q114 64 78.0 125.0Q42 186 42 265Q42 344 78.0 405.0Q114 466 177.5 500.5Q241 535 322 535Q394 535 450.5 506.5Q507 478 538 422L465 375Q439 414 401.5 432.5Q364 451 321 451Q269 451 228.0 428.0Q187 405 163.0 363.5Q139 322 139 265Q139 208 163.0 166.0Q187 124 228.0 101.0Q269 78 321 78Q364 78 401.5 96.5Q439 115 465 154L538 108Q507 53 450.5 23.5Q394 -6 322 -6Z" transform="translate(434.851,0.000) scale(0.041206,-0.041206)"/>
<path d="M420 0V112L415 133V324Q415 385 379.5 418.5Q344 452 273 452Q226 452 181.0 436.5Q136 421 105 395L65 467Q106 500 163.5 517.5Q221 535 284 535Q393 535 452.0 482.0Q511 429 511 320V0ZM246 -6Q187 -6 142.5 14.0Q98 34 74.0 69.5Q50 105 50 150Q50 193 70.5 228.0Q91 263 137.5 284.0Q184 305 263 305H431V236H267Q195 236 170.0 212.0Q145 188 145 154Q145 115 176.0 91.5Q207 68 262 68Q316 68 356.5 92.0Q397 116 415 162L434 96Q415 49 367.0 21.5Q319 -6 246 -6Z" transform="translate(458.379,0.000) scale(0.041206,-0.041206)"/>
<path d="M273 -6Q193 -6 149.0 37.0Q105 80 105 160V646H201V164Q201 121 222.5 98.0Q244 75 284 75Q329 75 359 100L389 31Q367 12 336.5 3.0Q306 -6 273 -6ZM15 451V530H353V451Z" transform="translate(483.021,0.000) scale(0.041206,-0.041206)"/>
<path d="M91 0V530H187V0ZM139 632Q111 632 92.5 650.0Q74 668 74 694Q74 721 92.5 739.0Q111 757 139 757Q167 757 185.5 739.5Q204 722 204 696Q204 669 186.0 650.5Q168 632 139 632Z" transform="translate(500.080,0.000) scale(0.041206,-0.041206)"/>
<path d="M318 -6Q238 -6 176.0 29.0Q114 64 78.0 125.5Q42 187 42 265Q42 344 78.0 405.0Q114 466 176.0 500.5Q238 535 318 535Q397 535 459.5 500.5Q522 466 557.5 405.5Q593 345 593 265Q593 186 557.5 125.0Q522 64 459.5 29.0Q397 -6 318 -6ZM318 78Q369 78 409.5 101.0Q450 124 473.0 166.5Q496 209 496 265Q496 322 473.0 363.5Q450 405 409.5 428.0Q369 451 318 451Q267 451 227.0 428.0Q187 405 163.0 363.5Q139 322 139 265Q139 209 163.0 166.5Q187 124 227.0 101.0Q267 78 318 78Z" transform="translate(511.577,0.000) scale(0.041206,-0.041206)"/>
<path d="M91 0V530H183V387L168 425Q194 477 248.0 506.0Q302 535 374 535Q439 535 488.5 510.0Q538 485 566.0 434.0Q594 383 594 305V0H498V294Q498 371 460.5 410.0Q423 449 355 449Q304 449 266.0 429.0Q228 409 207.5 370.0Q187 331 187 273V0Z" transform="translate(537.743,0.000) scale(0.041206,-0.041206)"/>
<path d="M273 -6Q193 -6 149.0 37.0Q105 80 105 160V646H201V164Q201 121 222.5 98.0Q244 75 284 75Q329 75 359 100L389 31Q367 12 336.5 3.0Q306 -6 273 -6ZM15 451V530H353V451Z" transform="translate(576.889,0.000) scale(0.041206,-0.041206)"/>
<path d="M318 -6Q238 -6 176.0 29.0Q114 64 78.0 125.5Q42 187 42 265Q42 344 78.0 405.0Q114 466 176.0 500.5Q238 535 318 535Q397 535 459.5 500.5Q522 466 557.5 405.5Q593 345 593 265Q593 186 557.5 125.0Q522 64 459.5 29.0Q397 -6 318 -6ZM318 78Q369 78 409.5 101.0Q450 124 473.0 166.5Q496 209 496 265Q496 322 473.0 363.5Q450 405 409.5 428.0Q369 451 318 451Q267 451 227.0 428.0Q187 405 163.0 363.5Q139 322 139 265Q139 209 163.0 166.5Q187 124 227.0 101.0Q267 78 318 78Z" transform="translate(593.948,0.000) scale(0.041206,-0.041206)"/>
<path d="M318 -6Q238 -6 176.0 29.0Q114 64 78.0 125.5Q42 187 42 265Q42 344 78.0 405.0Q114 466 176.0 500.5Q238 535 318 535Q397 535 459.5 500.5Q522 466 557.5 405.5Q593 345 593 265Q593 186 557.5 125.0Q522 64 459.5 29.0Q397 -6 318 -6ZM318 78Q369 78 409.5 101.0Q450 124 473.0 166.5Q496 209 496 265Q496 322 473.0 363.5Q450 405 409.5 428.0Q369 451 318 451Q267 451 227.0 428.0Q187 405 163.0 363.5Q139 322 139 265Q139 209 163.0 166.5Q187 124 227.0 101.0Q267 78 318 78Z" transform="translate(620.114,0.000) scale(0.041206,-0.041206)"/>
<path d="M91 0V742H187V0Z" transform="translate(646.280,0.000) scale(0.041206,-0.041206)"/></g>
  <path d="M 272 116 L 312 186 L 393 30" fill="none" stroke="#63a172" stroke-width="22" stroke-linecap="round" stroke-linejoin="round"/>
</svg>